<?xml version="1.0" ?><!DOCTYPE svg  PUBLIC '-//W3C//DTD SVG 1.1//EN'  'http://www.w3.org/Graphics/SVG/1.1/DTD/svg11.dtd'><svg enable-background="new 0 0 32 32" height="32px" id="stroke_x5F_03" version="1.1" viewBox="0 0 32 32" width="32px" xml:space="preserve" xmlns="http://www.w3.org/2000/svg" xmlns:xlink="http://www.w3.org/1999/xlink"><path clip-rule="evenodd" d="M16,0.013c-8.836,0-16,7.163-16,16s7.164,16,16,16s16-7.163,16-16  S24.837,0.013,16,0.013z M16,28.013c-6.627,0-12-5.373-12-12s5.373-12,12-12s12,5.373,12,12S22.628,28.013,16,28.013z M16,6.013  c-1.104,0-2,0.896-2,2s0.896,2,2,2s2-0.896,2-2S17.105,6.013,16,6.013z M16,12.013c-1.104,0-2,0.896-2,2v10c0,1.104,0.896,2,2,2  s2-0.896,2-2v-10C18,12.908,17.105,12.013,16,12.013z" fill="#000101" fill-rule="evenodd"/></svg>