<?xml version="1.0"?><svg width="720" height="540" xmlns="http://www.w3.org/2000/svg" clip-rule="evenodd">
 <desc>Piramide</desc>
 <defs>
  <filter id="l">
   <!-- licht donkerder -->
  </filter>
  <filter id="d">
   <!--  donkerder -->
  </filter>
 </defs>
 <g>
  <title>Layer 1</title>
  <g id="piramide">
   <g fill="royalblue" id="laag5">
    <polygon filter="url(#d)" points="91,377 575,377 626,330 160,330" fill="#000000" id="svg_1"/>
    <polygon filter="url(#l)" points="629,440 575,377 626,330 690,384" fill="#000000" opacity="0.8;" id="svg_2"/>
    <polygon points="91,377 575,377 629,440 40,440" fill="#000000" id="svg_3"/>
   </g>
   <g fill="cornflowerblue" id="laag4">
    <polygon filter="url(#d)" points="152,302 515,302 554,267 224,267" fill="#000000" id="svg_4"/>
    <polygon filter="url(#l)" points="567,367 515,302 554,267 617,322" fill="#000000" opacity="0.8;" id="svg_5"/>
    <polygon points="101,367 567,367 515,302 152,302" fill="#000000" id="svg_6"/>
   </g>
   <g fill="deepskyblue" id="laag3">
    <polygon filter="url(#d)" points="212,229 455,229 480,206 280,206" fill="#000000" id="svg_7"/>
    <polygon filter="url(#l)" points="455,229 508,292 544,260 481,206" fill="#000000" opacity="0.8;" id="svg_8"/>
    <polygon points="161,292 508,292 455,229 212,228" fill="#000000" id="svg_9"/>
   </g>
   <g fill="lightskyblue" id="laag2">
    <polygon filter="url(#d)" points="274,154 395,154 408,142 316,142" fill="#000000" id="svg_10"/>
    <polygon filter="url(#l)" points="447,218 471,196 408,142 395,154" fill="#000000" opacity="0.8;" id="svg_11"/>
    <polygon points="221,218 447,218 395,154 274,154" fill="#000000" id="svg_12"/>
   </g>
   <g fill="powderblue" id="laag1">
    <polygon points="281,143 386,143 334,79" fill="#000000" id="svg_13"/>
    <polygon filter="url(#l)" points="386,143 398,133 334,79" fill="#000000" opacity="0.8;" id="svg_14"/>
   </g>
  </g>
 </g>
</svg>