<?xml version="1.0" encoding="utf-8"?>
<!-- Generator: Adobe Illustrator 15.1.0, SVG Export Plug-In . SVG Version: 6.00 Build 0)  -->
<!DOCTYPE svg PUBLIC "-//W3C//DTD SVG 1.1//EN" "http://www.w3.org/Graphics/SVG/1.1/DTD/svg11.dtd">
<svg version="1.1" id="Layer_1" xmlns="http://www.w3.org/2000/svg" xmlns:xlink="http://www.w3.org/1999/xlink" x="0px" y="0px"
	 width="566.93px" height="566.93px" viewBox="0 0 566.93 566.93" enable-background="new 0 0 566.93 566.93" xml:space="preserve">
<g>
	<path d="M418.627,258.875c-1.094-1.173-2.716-2-3.28-3.5c-0.973-2.302-0.517-5.394-2.745-7.006
		c-2.055-0.415-4.457,0.073-6.029-1.543c-0.852-0.785-1.198-1.915-0.879-3.062c1.296-2.766,2.109-6,1.42-9.335
		c0.127-1.081-1.274-2.254,0-3.16c3.895,1.053,9.012,1.444,12.493-0.781c3.232-2.138,5.487-5.444,5.266-9.434
		c-0.851-5.541-4.651-9.949-9.086-13.916c-0.563-0.494-1.022-1.01-0.979-1.741c0.102-0.417,0.146-0.931,0.635-1.102
		c2.326-0.146,4.585-0.465,6.589-1.418c3.535-1.94,4.46-5.827,3.95-9.656c-0.147-0.245-0.128-0.735-0.539-0.659
		c-0.98,1.028-2.109,1.612-3.305,2.083c-4.466,0.607-8.676,1.762-11.933,5.264c-1.106,1.374-1.227,3.873-0.348,5.369
		c2.745,5.266,9.163,8.45,10.633,14.253c0.831,2.501-0.269,4.734-2.182,6.348c-2.917,1.816-7.055,1.494-9.99,0
		c-6.958-3.526-12.791-9.802-20.482-11.517c-4.461-0.537-8.234-2.693-11.639-5.806c-2.893-2.225-6.638-2.547-9.97-3.723
		c-3.066-3.233-6.709-5.094-10.537-6.566c-2.151-0.958-4.854-0.663-6.685-2.425c-1.209-1.812-3.062-3.429-4.8-4.604
		c-2.673-1.524-6.545-2.771-9.436-1.105c-0.233,0.195-0.464,0.38-0.696,0.576c-5.97-10.036-14.764-18.204-25.27-23.41v-26.142
		l-39.839,8.348v12.965c-16.379,3.624-30.284,13.903-38.728,27.847c-2.01-0.074-4.026,0.305-5.669,1.256
		c-4.654,4.099-10.438,5.54-15.901,7.771c-3.039,1.494-4.948,4.902-7.988,6.369c-4.162-0.07-7.84,1.008-10.855,3.727
		c-2.494,2.917-5.458,5.141-8.988,5.805c-6.295,0.193-11.492,2.911-16.02,7.351c-4.436,2.842-8.772,6.587-14.578,5.364
		c-2.186-0.589-4.285-2.573-5.048-4.704c-1.373-4.559,1.424-8.308,4.829-11.195c3.232-2.892,7.815-5.829,6.81-10.729
		c-0.761-4.167-5.392-4.977-8.776-5.719c-3.502-0.062-6.197-2.024-8.986-3.712c-0.664,1.028-0.91,2.2-0.783,3.499
		c0.268,3.235,2.913,6.567,6.027,7.57c2.025,1.155,4.803-0.49,6.687,0.985c0.56,0.536,0.34,1.097,0.222,1.759
		c-3.799,3.847-9.56,7.643-10.513,13.038c-0.761,4.335,0.781,8.398,4.165,11.193c3.675,2.838,9.604,3.478,13.917,1.542
		c0.513-0.199,1.198-0.166,1.543,0.417l0.437,5.928c0.222,2.766,2.429,4.826,2.084,7.67c-1.372,1.542-3.257,2.278-4.946,3.308
		l-4.385,0.44c-1.224,0.957-1.693,2.429-2.085,3.824c-0.145,3.16-3.722,5.069-6.027,6.591c-0.811,1.588-2.277,3.8-4.385,3.723
		c-1.467,1.686-1.567,3.945-2.08,6.027c2.005,0.198,3.893,1.004,6.023,0.539c2.621-0.565,2.942-3.404,4.383-5.14
		c1.718-1.795,4.022,0.195,5.932-0.45c2.425-1.2,4.781-2.668,6.789-4.917c4.604-2.331,9.845,1.39,14.255-1.11
		c1.96-2.274,5.197-1.881,6.688-4.702c0.81-2.179,2.427-4.017,2.747-6.367c-0.469-0.466-0.906-1.005-1.541-1.101
		c-0.519,1.006-1.154,1.932-1.743,2.868c-2.793,4.6-7.737,5.978-12.616,6.464c-6.471-0.147-12.325,1.154-16.563,6.469h-0.441
		c-0.292-0.096-0.463-0.245-0.539-0.564c2.232-3.944,6.246-6.765,10.536-7.353c6.738-0.653,14.286-0.83,17.982-7.449
		c2.374-3.548,1.668-8.373,2.719-12.492c0.048-0.487,0.371-0.905,0.883-0.883c0.27,0.121,0.682,0.197,0.787,0.564
		c-0.471,3.384-0.643,7.056,0.536,10.195c2.107,2.789,6.222,1.271,8.991,0.757c5.268-1.126,9.947,1.67,15.338,0.542
		c0.586-0.272,1.1-0.613,0.879-1.424c-0.218-1.178-0.929-2.132-0.662-3.504c0.174-0.389,0.564-0.658,1.005-0.658
		c0.809,0.438,0.661,1.467,0.983,2.2c2.128,6.223,11.291,5.882,11.83,13.158c-0.809,2.669-3.675,3.68-6.023,4.261
		c-4.366,1.007-5.323-4.305-7.795-6.565c-2.153-1.323-5.022-0.336-7.325,0c-0.586,0.222-0.782,0.815-0.662,1.423l2.621,4.263
		c0.958,2.036,3.525-0.366,4.608,1.663c1.004,2.207,3.136,4.855,5.806,4.928c4.017-0.836,7.593-2.599,11.292-4.167
		c1.424-1.835,4.139-0.511,5.932-1.545c0.576-0.224,0.938-0.688,1.264-1.202c11.064,14.541,28.553,23.952,48.196,23.952
		c20.26,0,38.22-10.01,49.209-25.34c0.08,0.315,0.154,0.631,0.208,0.949c0.493,2.262,2.898,0.835,4.387,1.543
		c2.015,2.966,5.489,2.797,8.363,3.944c2.029,0.685,4.017,1.845,6.344,1.548c2.201-0.665,3.55-2.989,3.716-5.17
		c0.711-1.058,2.477-0.124,3.288-1.206c0.975-1.512,2.255-2.838,2.868-4.481c-0.935-1.32-2.868-0.663-4.283-1.001
		c-0.348,0.148-0.938,0.12-1.209,0.12l-0.094-0.12c-3.162-0.199-3.218,3.427-4.835,5.161c-0.605,0.721-1.566,0.619-2.416,0.767
		c-2.578-0.936-6.593-1.302-6.787-4.926c1-2.129,3.279-4.018,5.146-5.486c2.125-0.415,4.058-1.568,5.482-3.506
		c1.103-1.002,0.663-3.236,2.622-3.303c0.882,1.393,0,3.182-0.662,4.504c3.679,0.423,7.254-0.191,10.664-0.78
		c5.21-1.254,10.114,1.593,15.112-0.319c2.522-1.257,2.696-4.099,2.965-6.566l-0.125-0.124l0.125-0.098
		c-0.027-1.32-0.367-2.497-0.541-3.749c-0.078-0.565-0.319-1.343,0.099-1.861c0.394-0.224,0.663-0.171,0.979,0.128
		c2.086,4.652,1.128,10.577,3.726,15.012c1.809,3.773,5.51,6.467,9.651,6.688c0.173,0.028,0.347-0.244,0.44,0
		c6.614-1.321,12.402,1.322,16.344,6.344v0.344c-0.246,0.248-0.465,0.57-0.88,0.442c-0.738-0.954-1.718-1.347-2.521-2.208
		c-3.662-3.522-8.953-3.745-14.041-3.157c-5.243,0.147-10.1-4.264-11.936-8.893c-0.444-0.466-0.411-1.472-1.223-1.419
		c-0.244,0.172-0.32,0.434-0.416,0.659c0.319,3.429,0.789,6.762,3.157,9.306c2.257,1.104,4.015,3.357,6.594,3.632
		c3.604-0.859,7.837-0.472,11.071,0.973c2.548,0.984,4.611,3.165,6.906,4.71c1.301,0.634,3.042,0.317,4.168-0.539
		c2.916-0.784,3.386,2.691,5.363,4.063c1.669,1.277,4.118,0.735,6.254,0.857l0.339-0.195c-0.292-2.011-0.709-3.968-1.541-5.705
		C421.477,263.509,420.05,260.72,418.627,258.875 M336.062,201.869c0.666-0.025,1.399-0.072,1.646,0.664
		c0.364,1.297-1.148,2.129-1.958,2.963c-2.701,2.033-5.153,4.824-6.589,7.573h-0.229
		C328.72,208.413,332.146,204.389,336.062,201.869 M272.844,158.605l32.128-6.492l0.024,13.46
		c-7.086-2.914-14.832-4.527-22.959-4.527c-3.129,0-6.205,0.242-9.207,0.707L272.844,158.605z M231.916,206.471
		c0.392-0.044,0.855-0.218,1.198,0c1.081,0.784,1.544,2.012,2.087,3.09c0.583,2.055,0.806,4.653,0.215,6.787l-0.315,0.218
		c-0.316-0.514-0.316-1.173-0.443-1.762c-0.439-2.594-1.592-4.925-3.06-7.128C231.547,207.235,231.599,206.797,231.916,206.471
		 M340.449,243.86l-4.387,5.931l-0.633,1.316c-0.611,1.286-0.224,3.114-0.345,4.492c-1.075-0.571-1.146-1.916-1.535-2.968
		c-1.01-4.239,3.179-6.591,4.599-9.974c-0.93-0.392-1.77-0.998-2.837-1.098c-2.239,2.694-3.554,5.753-5.272,8.67
		c-0.125,0.97-0.027,1.887,0.157,2.783c-10.285,15.702-28.028,26.099-48.158,26.099c-19.134,0-36.111-9.394-46.582-23.805
		c0.729-1.32,1.485-2.624,1.282-4.315c-0.046-2.284-2.203-3.7-2.961-5.708c-0.438-1.031-0.857-2.163-1.423-3.063
		c-1.175-0.467-2.695-1.01-3.842-0.099c1.418,3.015,3.256,5.851,4.724,8.87c0.348,2.496-1.027,4.581-2.745,6.366
		c-0.244,0.249-0.583,0.029-0.781-0.223c0.537-1.81,1.25-3.669,1.108-5.583c-1.719-3.333-3.995-6.416-5.689-9.773
		c0.048-0.594,0.241-1.251,0.859-1.523c1.717-0.831,3.942-0.511,5.266-1.98c1.62-2.792,2.743-5.784,3.06-9.091
		c0.202-0.166,0.37-0.438,0.664-0.342c0.317,0.193,0.317,0.513,0.438,0.784c0.638,3.699-0.416,6.98-2.078,9.85
		c-0.249,0.344-0.024,0.708,0.212,1.002c1.233,0.537,2.531-0.098,3.731-0.223c2.251-1.614,5.481-0.903,8.007-1.857
		c0,0.264,0.443,0.317,0.323,0.636c-1.275,1.393-1.836,3.138-2.184,4.95c-1.518,1.713-3.844,3.11-3.844,5.488
		c0.391,0.977,1.249,0,1.863,0c0.417,0,0.662,0.464,0.562,0.856c-0.587,1.1-1.762,1.957-1.762,3.306c0.586,1.441,0,3.705,1.98,4.267
		c4.535,0.804,7.796-2.826,12.378-2.625c3.478,0.883,6.466-0.707,8.768-3.306c0.639-0.35,1.175,0.169,1.765,0.342
		c2.473,2.62,5.34,4.192,8.674,4.705c1.03,0.142,2.328,0.246,3.282-0.1c0.219-0.241,0.075-0.661-0.12-0.881
		c-2.452-0.961-4.857-2.328-6.693-4.608c-1.03-2.835-2.403-5.581-4.483-8.006c-0.168-0.151-0.168-0.544,0.095-0.642
		c2.352,0.563,4.34,2.941,5.391,5.024c1.909,2.937,4.78,5.364,8.431,5.049c0.439-0.123,1.103-0.078,0.977-0.762
		c-5.583-1.737-6.49-7.789-10.854-11.076c-2.128-5.293-4.04-10.652-5.021-16.436c-0.145-5.268-3.11-9.406-6.375-13.372
		c-5.139-7.793-13.199-12.229-19.931-17.987l-2.208-1.198c-0.865-0.514-1.849-0.926-2.885-1.213
		c7.964-12.554,20.657-21.824,35.545-25.297v19.295c-0.999-0.458-1.454-0.448-2.131-0.448c-6.76,0-12.696,6.298-12.696,10.485
		c0,2.846,2.251,4.498,5.257,4.498c3.306,0,7.291-1.727,10.219-4.794c2.324-2.469,3.145-4.941,3.145-9.366l0.066-20.431
		c3.001-0.479,6.075-0.74,9.214-0.74c8.156,0,15.922,1.709,22.959,4.784l0.01,7.667c-1-0.454-1.457-0.449-2.135-0.449
		c-6.758,0-12.692,6.292-12.692,10.488c0,2.85,2.252,4.499,5.254,4.499c3.313,0,7.292-1.724,10.219-4.794
		c2.326-2.476,3.151-4.945,3.151-9.369v-6.213c9.533,5.038,17.499,12.668,22.935,21.951c-7.393,5.685-15.325,10.062-22.307,16.643
		c-4.677,4.364-7.174,9.65-8.671,15.362c-3.496,9.997-4.309,22.045-14.896,28.172c-0.068,0.322,0.073,0.56,0.318,0.761
		c2.378,0.47,4.95-0.072,6.593-2.084c1.594-2.523,3.528-4.896,5.805-7.126h0.442c0.832,0.169,0.147,0.881,0.224,1.324
		c-3.189,3.037-3.242,7.566-7.477,9.974c-0.468,0.413-1.689,1.124-0.855,1.758c4.676,0.487,8.108-2.963,11.387-5.929l0.669-0.098
		c1.859,1.152,3.256,3.629,5.707,3.064c4.877-1.344,8.204,1.692,12.148,2.963c1.178,0.518,2.06-0.391,2.866-1.101
		c1.718-1.201,0.836-3.377,0.762-5.047l0.322-0.317c0.805-0.093,1.809,0.686,2.423-0.22c0.271-2.207-1.618-3.773-2.524-5.588
		c-0.49-3.6-4.633-5.688-5.264-9.214c0.194-0.149,0.34-0.413,0.554-0.44c1.676,0.982,3.045,2.625,4.71,3.604
		c2.524,1.275,5.562,1.221,8.555,1.321c0.463-0.1,0.463-0.559,0.433-0.979c-1.562-3.505-2.884-7.13-2.619-11.415
		c0.268-1.303-0.292-3.261,1.302-3.728c0.388,0.101,0.44,0.54,0.654,0.785c0.203,3.824,0.279,7.741,1.989,10.954
		c0.929,2.303,3.386,3.631,5.242,5.043C340.65,241.854,340.87,243.001,340.449,243.86 M257.343,230.487
		c-0.559-0.271-1.245-0.246-1.738,0.22l-1.762,2.076c-0.587-0.263-0.297-1.22-0.218-1.734c0.634-1.594,1.518-3.111,2.079-4.726
		c0.298-0.494,1.002-0.348,1.421-0.226c1.711,1.104,2.035,3.13,3.721,4.389c1.324,1.783,2.16,4.455,1.006,6.592
		c-0.339,0.021-0.757,0.459-1.006,0C261.095,234.308,259.478,232.074,257.343,230.487 M253.625,248.247
		c0.927-0.831,1.88-1.913,3.277-1.306l0.223,0.863c0.148,0.833-0.196,1.47-0.537,2.082c-1.153,0.32-2.352,0.814-3.629,0.442
		C252.64,249.541,253.402,248.935,253.625,248.247 M313.697,232.125c-0.241-0.292-0.345-0.739-0.758-0.857
		c-1.592-0.392-2.771,0.932-3.943,1.863c-1.938,1.177-2.504,3.134-2.965,5.046c-0.127,0.341-0.492,0.148-0.759,0.222
		c-0.985-0.976,0-2.203,0-3.311c0.98-3.333,4.752-5.195,6.569-8.204c1.93-0.075,2.171,2.134,3.086,3.279
		c0.242,0.933,1.438,2.106,0.217,2.968C314.486,233.256,313.893,232.694,313.697,232.125 M313.818,250.328
		c-0.802,0.249-1.638,0-2.418-0.099c-0.916-0.49-0.959-1.544-1.207-2.425c0.196-0.289,0.047-0.833,0.442-0.979
		c1.102,0.074,2.158,0.487,2.844,1.32C313.771,248.809,314.359,249.595,313.818,250.328 M220.938,255.498
		c0.147-0.539-0.268-0.834-0.416-1.222c-0.536-1.084-0.785-2.259-1.444-3.285c-1.396-0.052-2.987,0.049-4.386,0.339l-0.103-0.121
		c-0.387,0.199-0.88,0.074-1.317,0.121c-0.224,0.149-0.319,0.368-0.319,0.64c1.908,1.125,2.376,3.235,3.406,4.947
		C218.025,257.774,219.619,256.454,220.938,255.498 M349.571,251.651c-0.625-0.031-1.303,0.047-1.775,0l-0.09,0.097
		c-0.783-0.246-1.764,0.047-2.523-0.197c-0.838,1.08-1.398,2.404-1.106,3.823c0.494,0.881,1.542,0.905,2.302,1.324
		c0.833,0.047,2.036,0.435,2.627-0.343c0.59-1.397,1.05-2.844,1.316-4.386C350.126,251.725,349.88,251.599,349.571,251.651
		 M139.6,260.961c1.204,0.519,2.159-0.294,2.968-1.079c0.686-1.126,1.765-2.084,1.958-3.405c-0.344-0.83-1.374-1.615-2.183-1.102
		c-1.148,1.862-4.872,1.833-3.843,4.725C138.866,260.399,139.138,260.914,139.6,260.961 M422.696,255.276l-0.78-0.126
		c-0.517,0.472-1.695,0.785-1.427,1.767c1.132,1.52,1.917,4.018,4.074,4.269c0.698-0.325,1.589-0.495,1.951-1.304
		c0.107-0.565,0.373-1.054,0-1.546L422.696,255.276z M135.441,261.623c-1.55,0.929-1.497,2.716-1.425,4.387
		c-0.024,1.051-1.25,1.617-1.101,2.739c1.151,0.397,2.23,1.03,3.497,1.104c0.716-2.129,1.183-4.383,1.769-6.589l-1.983-1.954
		C135.901,261.31,135.684,261.524,135.441,261.623 M430.809,263.163c-0.399-0.631-0.859-1.292-1.544-1.639
		c-1.101-0.563-1.786,0.783-2.401,1.422c-0.173,1.668,0.655,3.209,0.981,4.82c0.214,0.762-0.05,1.845,0.66,2.303l3.276-0.979
		l0.125-0.876C430.586,266.911,431.325,264.786,430.809,263.163"/>
	<path d="M357.364,408.341c0.136,1.467,0.512,2.712,1.126,3.735s1.415,1.859,2.405,2.507c0.988,0.648,2.156,1.126,3.504,1.433
		s2.822,0.461,4.427,0.461c1.637,0,3.087-0.197,4.349-0.589s2.311-0.921,3.147-1.586c0.835-0.665,1.466-1.458,1.893-2.38
		c0.427-0.921,0.64-1.893,0.64-2.916c0-2.422-0.683-4.221-2.047-5.398c-1.364-1.177-3.428-2.003-6.19-2.481l-4.043-0.665
		c-1.194-0.205-2.157-0.442-2.891-0.717c-0.733-0.272-1.305-0.596-1.714-0.972c-0.409-0.375-0.683-0.81-0.818-1.306
		c-0.137-0.493-0.205-1.048-0.205-1.662s0.119-1.21,0.358-1.791c0.238-0.579,0.639-1.092,1.202-1.535
		c0.562-0.442,1.305-0.793,2.226-1.048c0.921-0.257,2.063-0.385,3.429-0.385c1.228,0,2.251,0.103,3.069,0.308
		c0.818,0.204,1.501,0.503,2.047,0.895c0.545,0.394,0.997,0.888,1.355,1.484c0.358,0.598,0.674,1.288,0.947,2.072l2.712-0.562
		c-0.239-0.921-0.572-1.791-0.998-2.609c-0.427-0.819-1.023-1.535-1.791-2.149s-1.757-1.101-2.968-1.458
		c-1.211-0.358-2.72-0.538-4.528-0.538c-1.398,0-2.703,0.172-3.914,0.513s-2.26,0.827-3.146,1.458
		c-0.888,0.631-1.586,1.416-2.098,2.354c-0.512,0.938-0.768,1.987-0.768,3.146c0,1.229,0.196,2.261,0.59,3.096
		c0.394,0.836,0.975,1.535,1.744,2.098c0.77,0.563,1.711,1.016,2.823,1.356c1.111,0.341,2.369,0.632,3.771,0.869l3.232,0.513
		c1.163,0.204,2.112,0.46,2.849,0.767c0.735,0.308,1.3,0.684,1.692,1.126c0.394,0.443,0.659,0.93,0.796,1.459
		c0.137,0.528,0.206,1.1,0.206,1.714c0,1.432-0.53,2.627-1.587,3.581c-1.058,0.956-2.865,1.433-5.423,1.433
		c-2.525,0-4.47-0.426-5.834-1.279c-1.364-0.852-2.234-2.303-2.609-4.349H357.364z M343.365,407.132
		c0,1.191,0.052,2.332,0.153,3.421c0.103,1.09,0.366,2.052,0.794,2.886c0.426,0.834,1.065,1.506,1.919,2.017
		c0.853,0.51,2.028,0.766,3.53,0.766c1.193,0,2.157-0.086,2.891-0.256c0.733-0.172,1.355-0.358,1.868-0.563l-0.614-2.404
		c-0.479,0.171-1.023,0.325-1.638,0.46c-0.614,0.137-1.364,0.205-2.251,0.205c-1.365,0-2.32-0.45-2.866-1.353
		c-0.545-0.902-0.818-1.999-0.818-3.293v-17.203h7.471v-2.507h-7.471v-7.266h-2.968v7.266h-4.093v2.507h4.093V407.132z
		 M313.884,415.658h2.968v-15.453c0-1.638,0.256-2.925,0.767-3.863c0.513-0.938,1.279-1.85,2.304-2.737
		c0.92-0.853,1.952-1.476,3.095-1.867c1.143-0.393,2.227-0.589,3.249-0.589c2.149,0,3.718,0.605,4.708,1.816
		c0.988,1.211,1.483,3.198,1.483,5.961v16.732h2.968v-17.551c0-3.07-0.716-5.441-2.148-7.112s-3.651-2.508-6.652-2.508
		c-1.842,0-3.573,0.402-5.193,1.203c-1.62,0.802-3.146,2.106-4.579,3.914v-4.298h-2.968V415.658z M287.67,400.666
		c0.306-3.309,1.225-5.765,2.755-7.369c1.53-1.603,3.571-2.404,6.122-2.404c1.463,0,2.722,0.239,3.775,0.716
		c1.054,0.479,1.904,1.151,2.551,2.021c0.646,0.87,1.122,1.902,1.428,3.096c0.306,1.194,0.46,2.508,0.46,3.94H287.67z
		 M304.504,408.75c-0.204,0.777-0.484,1.479-0.841,2.104c-0.358,0.625-0.843,1.174-1.455,1.646c-0.612,0.474-1.377,0.837-2.295,1.09
		c-0.918,0.254-2.04,0.38-3.366,0.38c-1.464,0-2.756-0.279-3.878-0.84c-1.122-0.56-2.057-1.324-2.806-2.291
		c-0.748-0.968-1.309-2.105-1.683-3.412s-0.562-2.708-0.562-4.202h20.211v-1.893c0-1.809-0.205-3.497-0.614-5.065
		s-1.066-2.925-1.97-4.068c-0.904-1.143-2.072-2.046-3.505-2.712c-1.433-0.665-3.172-0.998-5.219-0.998
		c-1.739,0-3.334,0.308-4.784,0.922c-1.45,0.613-2.712,1.526-3.786,2.737c-1.075,1.211-1.911,2.704-2.507,4.477
		c-0.598,1.774-0.896,3.821-0.896,6.141c0,4.265,1.049,7.615,3.146,10.054c2.098,2.439,5.04,3.659,8.826,3.659
		c3.274,0,5.799-0.717,7.572-2.149c1.774-1.433,2.866-3.292,3.275-5.577H304.504z M258.403,408.341
		c0.136,1.467,0.512,2.712,1.125,3.735s1.415,1.859,2.405,2.507c0.989,0.648,2.157,1.126,3.505,1.433
		c1.347,0.307,2.822,0.461,4.425,0.461c1.638,0,3.087-0.197,4.35-0.589c1.262-0.392,2.311-0.921,3.147-1.586
		c0.835-0.665,1.466-1.458,1.893-2.38c0.426-0.921,0.639-1.893,0.639-2.916c0-2.422-0.682-4.221-2.046-5.398
		c-1.365-1.177-3.428-2.003-6.191-2.481l-4.042-0.665c-1.194-0.205-2.158-0.442-2.891-0.717c-0.734-0.272-1.305-0.596-1.714-0.972
		c-0.409-0.375-0.683-0.81-0.819-1.306c-0.137-0.493-0.205-1.048-0.205-1.662s0.119-1.21,0.358-1.791
		c0.238-0.579,0.64-1.092,1.203-1.535c0.562-0.442,1.304-0.793,2.226-1.048c0.92-0.257,2.063-0.385,3.428-0.385
		c1.228,0,2.251,0.103,3.07,0.308c0.818,0.204,1.5,0.503,2.047,0.895c0.545,0.394,0.998,0.888,1.356,1.484
		c0.358,0.598,0.673,1.288,0.946,2.072l2.712-0.562c-0.239-0.921-0.572-1.791-0.998-2.609c-0.427-0.819-1.023-1.535-1.791-2.149
		c-0.768-0.614-1.758-1.101-2.968-1.458c-1.212-0.358-2.721-0.538-4.529-0.538c-1.399,0-2.704,0.172-3.914,0.513
		c-1.211,0.341-2.26,0.827-3.147,1.458c-0.887,0.631-1.586,1.416-2.098,2.354c-0.511,0.938-0.767,1.987-0.767,3.146
		c0,1.229,0.197,2.261,0.59,3.096c0.394,0.836,0.975,1.535,1.745,2.098c0.77,0.563,1.711,1.016,2.823,1.356
		c1.111,0.341,2.369,0.632,3.771,0.869l3.233,0.513c1.163,0.204,2.113,0.46,2.848,0.767c0.735,0.308,1.3,0.684,1.693,1.126
		c0.393,0.443,0.658,0.93,0.795,1.459c0.137,0.528,0.205,1.1,0.205,1.714c0,1.432-0.529,2.627-1.586,3.581
		c-1.058,0.956-2.865,1.433-5.424,1.433c-2.524,0-4.469-0.426-5.833-1.279c-1.364-0.852-2.234-2.303-2.61-4.349H258.403z
		 M233.848,400.666c0.305-3.309,1.224-5.765,2.754-7.369c1.531-1.603,3.572-2.404,6.123-2.404c1.462,0,2.721,0.239,3.775,0.716
		c1.053,0.479,1.904,1.151,2.55,2.021s1.122,1.902,1.428,3.096c0.306,1.194,0.46,2.508,0.46,3.94H233.848z M250.682,408.75
		c-0.205,0.777-0.485,1.479-0.842,2.104c-0.357,0.625-0.842,1.174-1.454,1.646c-0.612,0.474-1.377,0.837-2.295,1.09
		c-0.917,0.254-2.041,0.38-3.366,0.38c-1.463,0-2.755-0.279-3.878-0.84c-1.123-0.56-2.057-1.324-2.805-2.291
		c-0.749-0.968-1.31-2.105-1.684-3.412s-0.561-2.708-0.561-4.202h20.211v-1.893c0-1.809-0.205-3.497-0.614-5.065
		s-1.066-2.925-1.97-4.068c-0.904-1.143-2.072-2.046-3.505-2.712c-1.433-0.665-3.172-0.998-5.219-0.998
		c-1.74,0-3.335,0.308-4.784,0.922c-1.45,0.613-2.711,1.526-3.786,2.737s-1.911,2.704-2.507,4.477
		c-0.598,1.774-0.896,3.821-0.896,6.141c0,4.265,1.049,7.615,3.147,10.054c2.098,2.439,5.04,3.659,8.826,3.659
		c3.275,0,5.799-0.717,7.573-2.149c1.773-1.433,2.865-3.292,3.274-5.577H250.682z M215.5,415.658h2.968v-15.896
		c0-1.334,0.256-2.488,0.768-3.463c0.512-0.974,1.16-1.803,1.944-2.486c0.819-0.785,1.689-1.341,2.609-1.666
		c0.921-0.324,1.825-0.487,2.712-0.487c0.512,0,1.074,0.051,1.689,0.153l0.358-2.763c-0.375-0.068-0.725-0.11-1.049-0.128
		c-0.325-0.017-0.674-0.025-1.049-0.025c-1.535,0-2.985,0.409-4.35,1.228c-1.365,0.818-2.576,1.979-3.633,3.479v-4.298H215.5
		V415.658z M188.812,401.229c0-2.08,0.333-3.794,0.998-5.143c0.666-1.347,1.594-2.464,2.789-3.352
		c0.852-0.647,1.706-1.091,2.559-1.33c0.852-0.238,1.808-0.358,2.865-0.358c0.955,0,1.926,0.18,2.917,0.538
		c0.989,0.357,1.875,0.972,2.661,1.842c0.784,0.869,1.424,2.021,1.919,3.453c0.494,1.433,0.742,3.224,0.742,5.373
		c0,2.115-0.222,3.914-0.665,5.398c-0.443,1.483-1.049,2.686-1.816,3.606c-0.768,0.921-1.681,1.596-2.738,2.021
		c-1.058,0.427-2.218,0.64-3.479,0.64c-1.058,0-1.995-0.136-2.813-0.409c-0.819-0.273-1.621-0.717-2.405-1.331
		c-0.648-0.442-1.195-0.929-1.637-1.458c-0.443-0.528-0.811-1.134-1.1-1.816c-0.29-0.683-0.495-1.458-0.614-2.328
		c-0.12-0.869-0.179-1.885-0.179-3.045V401.229z M185.946,425.584h2.968v-13.508c1.228,1.637,2.584,2.78,4.068,3.428
		c1.483,0.647,3.027,0.973,4.63,0.973c1.808,0,3.437-0.325,4.887-0.973c1.449-0.647,2.686-1.586,3.709-2.814
		c1.023-1.228,1.816-2.72,2.379-4.477s0.844-3.761,0.844-6.012c0-1.945-0.23-3.753-0.69-5.425c-0.46-1.67-1.161-3.12-2.099-4.349
		s-2.115-2.191-3.53-2.891c-1.416-0.699-3.095-1.05-5.04-1.05c-2.047,0-3.787,0.419-5.219,1.255s-2.746,2.004-3.94,3.504v-3.939
		h-2.968V425.584z"/>
	<path d="M538.08,351.557c0.682,0.237,1.287,0.399,1.816,0.485c0.529,0.085,1.185,0.128,1.97,0.128c0.989,0,1.843-0.146,2.559-0.435
		c0.717-0.29,1.339-0.716,1.867-1.279c0.529-0.562,1.007-1.246,1.434-2.047c0.426-0.802,0.844-1.697,1.253-2.687l11.974-29.83
		h-3.326l-8.545,22.564l-9.567-22.564h-3.429l11.308,25.993l-1.228,3.121c-0.376,0.887-0.709,1.612-0.998,2.175
		c-0.29,0.562-0.606,1.022-0.946,1.381c-0.342,0.359-0.717,0.605-1.126,0.742c-0.409,0.136-0.921,0.205-1.535,0.205
		c-0.512,0-0.998-0.052-1.458-0.154c-0.461-0.102-0.896-0.238-1.305-0.409L538.08,351.557z M497.249,342.244h2.968v-15.606
		c0-0.887,0.094-1.671,0.281-2.354s0.418-1.279,0.69-1.791c0.273-0.512,0.589-0.954,0.947-1.33c0.358-0.375,0.69-0.698,0.997-0.973
		c0.887-0.784,1.782-1.39,2.687-1.816c0.903-0.426,1.868-0.64,2.891-0.64c1.808,0,3.155,0.537,4.043,1.612
		c0.887,1.074,1.33,2.891,1.33,5.449v17.448h2.968v-16.886c0-1.228,0.264-2.302,0.793-3.224c0.528-0.921,1.203-1.705,2.021-2.354
		c0.921-0.784,1.884-1.321,2.891-1.611c1.006-0.29,1.901-0.436,2.687-0.436c0.921,0,1.723,0.111,2.404,0.333
		c0.683,0.222,1.254,0.606,1.715,1.151c0.46,0.546,0.801,1.262,1.023,2.148c0.221,0.888,0.332,2.014,0.332,3.378v17.499h2.968
		V323.67c0-3.001-0.717-5.185-2.149-6.55c-1.433-1.363-3.411-2.046-5.935-2.046c-1.843,0-3.565,0.452-5.168,1.355
		c-1.604,0.904-3.003,2.175-4.196,3.812c-0.58-1.638-1.476-2.908-2.686-3.812c-1.212-0.903-2.823-1.355-4.836-1.355
		c-1.535,0-3.044,0.427-4.528,1.279s-2.874,2.148-4.17,3.889v-4.35h-2.968V342.244z M470.643,327.252
		c0.305-3.309,1.224-5.765,2.754-7.368s3.571-2.405,6.122-2.405c1.463,0,2.721,0.239,3.775,0.717
		c1.054,0.479,1.904,1.151,2.551,2.021c0.646,0.87,1.121,1.902,1.428,3.096c0.307,1.195,0.46,2.508,0.46,3.94H470.643z
		 M487.477,335.336c-0.205,0.777-0.485,1.479-0.843,2.104c-0.356,0.625-0.841,1.174-1.453,1.646
		c-0.612,0.474-1.378,0.836-2.296,1.089c-0.918,0.254-2.04,0.38-3.367,0.38c-1.462,0-2.755-0.279-3.877-0.84
		c-1.122-0.56-2.058-1.323-2.806-2.291s-1.309-2.105-1.683-3.412s-0.562-2.708-0.562-4.201h20.211v-1.894
		c0-1.808-0.204-3.496-0.613-5.065c-0.41-1.568-1.067-2.925-1.97-4.068c-0.904-1.143-2.073-2.046-3.506-2.712
		c-1.433-0.665-3.172-0.997-5.219-0.997c-1.739,0-3.335,0.307-4.784,0.921c-1.45,0.614-2.712,1.526-3.786,2.737
		c-1.074,1.212-1.91,2.704-2.508,4.478c-0.597,1.773-0.895,3.82-0.895,6.14c0,4.265,1.049,7.616,3.146,10.054
		c2.098,2.44,5.04,3.659,8.826,3.659c3.275,0,5.799-0.717,7.572-2.149s2.865-3.291,3.275-5.577H487.477z M458.362,330.321
		c0,2.047-0.324,3.754-0.972,5.117c-0.648,1.364-1.57,2.49-2.764,3.377c-0.887,0.648-1.749,1.093-2.584,1.33
		c-0.836,0.239-1.782,0.358-2.84,0.358c-0.989,0-1.97-0.179-2.941-0.537c-0.973-0.358-1.851-0.972-2.636-1.843
		c-0.784-0.869-1.424-2.028-1.918-3.479c-0.496-1.449-0.742-3.249-0.742-5.398c0-2.114,0.222-3.905,0.665-5.372
		c0.443-1.466,1.049-2.661,1.816-3.582s1.68-1.594,2.737-2.021c1.057-0.426,2.217-0.639,3.479-0.639
		c1.023,0,1.936,0.136,2.737,0.409c0.801,0.273,1.612,0.716,2.431,1.33c0.614,0.479,1.151,0.972,1.612,1.483
		c0.46,0.512,0.826,1.101,1.1,1.766c0.272,0.665,0.478,1.433,0.613,2.302c0.137,0.87,0.205,1.902,0.205,3.097V330.321z
		 M458.209,342.244h2.968V305.71h-2.968v13.765c-1.297-1.706-2.695-2.865-4.195-3.479c-1.502-0.614-2.968-0.921-4.401-0.921
		c-3.684,0-6.574,1.254-8.673,3.761c-2.098,2.507-3.146,6.012-3.146,10.515c0,1.809,0.222,3.539,0.666,5.193
		c0.442,1.655,1.125,3.113,2.046,4.375s2.089,2.27,3.505,3.019c1.415,0.75,3.096,1.126,5.04,1.126c2.081,0,3.846-0.427,5.296-1.279
		c1.449-0.852,2.737-2.013,3.863-3.479V342.244z M427.97,332.112c0,0.819-0.053,1.535-0.154,2.149
		c-0.103,0.614-0.282,1.169-0.539,1.663s-0.582,0.946-0.976,1.355c-0.393,0.409-0.898,0.837-1.515,1.279
		c-0.72,0.581-1.635,0.998-2.747,1.254s-2.233,0.384-3.361,0.384c-2.26,0-3.844-0.486-4.75-1.459
		c-0.906-0.972-1.359-2.259-1.359-3.862c0-1.057,0.179-1.971,0.538-2.737c0.359-0.769,0.949-1.416,1.771-1.945
		c0.821-0.528,1.899-0.938,3.234-1.228c1.335-0.289,2.994-0.469,4.98-0.537l4.877-0.205V332.112z M428.021,342.244h2.968v-17.346
		c0-1.569-0.172-2.959-0.512-4.17c-0.341-1.211-0.896-2.234-1.663-3.071c-0.768-0.835-1.783-1.475-3.044-1.918
		c-1.263-0.442-2.814-0.665-4.656-0.665c-5.936,0-9.382,2.148-10.336,6.447l2.712,0.409c0.17-0.647,0.427-1.236,0.768-1.766
		c0.34-0.528,0.801-0.989,1.382-1.382c0.579-0.392,1.304-0.69,2.174-0.895c0.87-0.205,1.936-0.308,3.198-0.308
		c2.592,0,4.392,0.597,5.398,1.791c1.006,1.194,1.509,3.088,1.509,5.68v0.818l-5.116,0.205c-1.706,0.068-3.352,0.229-4.938,0.486
		c-1.587,0.255-3.002,0.708-4.247,1.355c-1.246,0.648-2.243,1.535-2.993,2.66c-0.751,1.126-1.126,2.576-1.126,4.35
		c0,2.628,0.835,4.604,2.508,5.936c1.67,1.33,3.888,1.995,6.651,1.995c1.125,0,2.157-0.12,3.095-0.358
		c0.938-0.238,1.799-0.562,2.585-0.972c0.784-0.409,1.483-0.878,2.098-1.407c0.614-0.528,1.143-1.065,1.586-1.611V342.244z
		 M401.978,333.647c-0.41,2.081-1.203,3.744-2.38,4.989s-3.044,1.867-5.603,1.867c-1.604,0-2.977-0.289-4.119-0.869
		c-1.144-0.58-2.072-1.382-2.788-2.405c-0.717-1.023-1.246-2.233-1.587-3.633c-0.341-1.398-0.512-2.917-0.512-4.555
		c0-1.637,0.171-3.154,0.512-4.553c0.341-1.399,0.887-2.601,1.638-3.607c0.75-1.006,1.688-1.799,2.814-2.38
		c1.126-0.579,2.489-0.869,4.093-0.869c1.193,0,2.227,0.171,3.096,0.512c0.87,0.341,1.595,0.802,2.175,1.381
		c0.579,0.58,1.057,1.279,1.433,2.098c0.375,0.818,0.665,1.706,0.87,2.661l2.865-0.717c-0.546-2.693-1.681-4.784-3.402-6.268
		c-1.723-1.484-4.034-2.226-6.934-2.226c-1.911,0-3.625,0.332-5.143,0.997c-1.518,0.666-2.806,1.612-3.862,2.84
		c-1.058,1.229-1.877,2.712-2.457,4.452c-0.58,1.739-0.869,3.684-0.869,5.833s0.272,4.076,0.818,5.782s1.33,3.164,2.354,4.375
		c1.024,1.211,2.285,2.132,3.787,2.763c1.5,0.631,3.206,0.946,5.116,0.946c3.173,0,5.68-0.827,7.521-2.481
		c1.843-1.654,3.019-3.966,3.53-6.934H401.978z M355.108,328.224l7.419-19.085l7.521,19.085H355.108z M346.358,342.244h3.274
		l4.35-11.154h17.192l4.4,11.154h3.377l-14.43-36.534h-3.684L346.358,342.244z M329.884,333.647
		c-0.409,2.081-1.203,3.744-2.38,4.989s-3.044,1.867-5.603,1.867c-1.604,0-2.977-0.289-4.119-0.869s-2.071-1.382-2.788-2.405
		s-1.246-2.233-1.586-3.633c-0.342-1.398-0.512-2.917-0.512-4.555c0-1.637,0.17-3.154,0.512-4.553
		c0.34-1.399,0.887-2.601,1.638-3.607c0.749-1.006,1.688-1.799,2.813-2.38c1.126-0.579,2.489-0.869,4.094-0.869
		c1.193,0,2.226,0.171,3.095,0.512c0.87,0.341,1.595,0.802,2.176,1.381c0.579,0.58,1.057,1.279,1.433,2.098
		c0.374,0.818,0.665,1.706,0.869,2.661l2.865-0.717c-0.546-2.693-1.68-4.784-3.402-6.268c-1.723-1.484-4.034-2.226-6.933-2.226
		c-1.911,0-3.625,0.332-5.144,0.997c-1.518,0.666-2.806,1.612-3.862,2.84c-1.058,1.229-1.877,2.712-2.456,4.452
		c-0.581,1.739-0.87,3.684-0.87,5.833s0.272,4.076,0.819,5.782c0.545,1.706,1.33,3.164,2.354,4.375s2.284,2.132,3.786,2.763
		c1.5,0.631,3.206,0.946,5.117,0.946c3.172,0,5.679-0.827,7.521-2.481c1.842-1.654,3.019-3.966,3.53-6.934H329.884z
		 M299.798,310.162h3.377v-4.452h-3.377V310.162z M300.002,342.244h2.968v-26.352h-2.968V342.244z M272.219,334.927
		c0.136,1.467,0.512,2.712,1.125,3.735c0.614,1.023,1.416,1.859,2.405,2.507c0.989,0.648,2.157,1.126,3.505,1.433
		c1.347,0.308,2.822,0.461,4.426,0.461c1.637,0,3.086-0.197,4.349-0.588c1.262-0.393,2.311-0.922,3.147-1.587
		c0.835-0.665,1.466-1.458,1.893-2.379c0.426-0.922,0.64-1.894,0.64-2.917c0-2.422-0.683-4.222-2.047-5.398s-3.428-2.003-6.191-2.48
		l-4.042-0.666c-1.194-0.204-2.158-0.442-2.891-0.716c-0.734-0.272-1.305-0.597-1.714-0.973c-0.409-0.375-0.683-0.81-0.818-1.305
		c-0.137-0.494-0.205-1.049-0.205-1.663c0-0.613,0.119-1.21,0.358-1.791c0.238-0.579,0.64-1.091,1.203-1.535
		c0.562-0.442,1.304-0.793,2.226-1.048c0.921-0.256,2.063-0.384,3.428-0.384c1.228,0,2.251,0.102,3.07,0.307
		c0.819,0.205,1.501,0.504,2.047,0.896c0.545,0.393,0.998,0.888,1.356,1.483c0.357,0.598,0.673,1.288,0.946,2.072l2.712-0.562
		c-0.239-0.921-0.572-1.791-0.998-2.609c-0.427-0.819-1.023-1.535-1.791-2.149c-0.768-0.613-1.757-1.101-2.967-1.458
		c-1.212-0.358-2.722-0.537-4.529-0.537c-1.399,0-2.704,0.171-3.915,0.512c-1.211,0.341-2.26,0.827-3.146,1.458
		c-0.888,0.632-1.586,1.416-2.098,2.354c-0.512,0.938-0.768,1.987-0.768,3.146c0,1.229,0.197,2.261,0.59,3.096
		c0.394,0.837,0.975,1.536,1.745,2.098c0.77,0.563,1.711,1.017,2.823,1.356c1.111,0.342,2.369,0.632,3.771,0.87l3.232,0.512
		c1.163,0.204,2.112,0.46,2.849,0.768c0.734,0.307,1.299,0.683,1.693,1.125c0.393,0.444,0.658,0.931,0.795,1.459
		s0.205,1.1,0.205,1.714c0,1.433-0.528,2.627-1.586,3.581c-1.058,0.956-2.865,1.433-5.424,1.433c-2.524,0-4.469-0.426-5.833-1.279
		c-1.364-0.852-2.234-2.302-2.609-4.349H272.219z M245.203,333.443c0,3.139,0.647,5.525,1.945,7.163
		c1.295,1.638,3.444,2.456,6.447,2.456c3.615,0,6.805-1.705,9.568-5.117v4.299h2.968v-26.352h-2.968v15.453
		c0,1.637-0.256,2.925-0.767,3.862c-0.512,0.938-1.263,1.851-2.252,2.737c-0.956,0.819-1.962,1.433-3.019,1.843
		c-1.058,0.409-2.116,0.613-3.172,0.613c-2.116,0-3.607-0.604-4.478-1.816c-0.87-1.21-1.305-3.197-1.305-5.961v-16.731h-2.968
		V333.443z M202.632,342.244h2.968v-31.11l12.746,31.11h2.957c1.598-3.889,3.008-7.317,4.231-10.285s2.286-5.552,3.187-7.752
		c0.901-2.199,1.657-4.059,2.27-5.577c0.612-1.518,1.122-2.771,1.529-3.761c0.918-2.319,1.462-3.633,1.632-3.939v31.314h2.968
		V305.71h-3.838l-13.406,32.901l-13.201-32.901h-4.042V342.244z M179.249,342.244h2.968V305.71h-2.968V342.244z M168.811,342.244
		h2.968V305.71h-2.968V342.244z M140.567,333.443c0,3.139,0.647,5.525,1.944,7.163c1.296,1.638,3.445,2.456,6.447,2.456
		c3.615,0,6.805-1.705,9.568-5.117v4.299h2.967v-26.352h-2.967v15.453c0,1.637-0.256,2.925-0.768,3.862
		c-0.511,0.938-1.263,1.851-2.251,2.737c-0.956,0.819-1.962,1.433-3.019,1.843c-1.058,0.409-2.116,0.613-3.172,0.613
		c-2.116,0-3.607-0.604-4.477-1.816c-0.87-1.21-1.305-3.197-1.305-5.961v-16.731h-2.968V333.443z M112.169,339.48v-14.94h9.517
		c3.377,0,5.816,0.648,7.317,1.944c1.5,1.297,2.251,3.19,2.251,5.68c0,1.126-0.146,2.141-0.435,3.044
		c-0.29,0.904-0.802,1.672-1.535,2.303c-0.734,0.632-1.723,1.118-2.968,1.458c-1.246,0.342-2.84,0.512-4.784,0.512H112.169z
		 M112.169,321.777v-13.304h8.391c3.547,0,6.046,0.521,7.496,1.561c1.45,1.041,2.174,2.687,2.174,4.938s-0.725,3.948-2.174,5.091
		c-1.45,1.144-3.761,1.715-6.933,1.715H112.169z M109.099,342.244h12.536c2.387,0,4.4-0.265,6.038-0.792
		c1.637-0.527,2.968-1.26,3.991-2.197c1.023-0.937,1.756-2.035,2.2-3.295c0.443-1.26,0.665-2.605,0.665-4.036
		c0-0.919-0.111-1.831-0.332-2.733c-0.223-0.901-0.597-1.745-1.125-2.528c-0.53-0.784-1.228-1.49-2.098-2.12
		c-0.87-0.63-1.953-1.167-3.249-1.61c2.012-0.854,3.445-1.964,4.298-3.331c0.853-1.367,1.279-2.974,1.279-4.818
		c0-1.229-0.179-2.392-0.537-3.485c-0.358-1.094-1.015-2.059-1.97-2.896s-2.243-1.495-3.863-1.973
		c-1.621-0.479-3.71-0.719-6.268-0.719h-11.564V342.244z M86.023,330.321c0,2.047-0.324,3.754-0.972,5.117
		c-0.648,1.364-1.569,2.49-2.763,3.377c-0.887,0.648-1.749,1.093-2.584,1.33c-0.836,0.239-1.783,0.358-2.84,0.358
		c-0.99,0-1.97-0.179-2.942-0.537s-1.851-0.972-2.635-1.843c-0.785-0.869-1.425-2.028-1.919-3.479
		c-0.495-1.449-0.742-3.249-0.742-5.398c0-2.114,0.221-3.905,0.665-5.372c0.443-1.466,1.049-2.661,1.817-3.582
		c0.767-0.921,1.679-1.594,2.737-2.021c1.057-0.426,2.217-0.639,3.479-0.639c1.023,0,1.936,0.136,2.738,0.409
		c0.801,0.273,1.611,0.716,2.43,1.33c0.614,0.479,1.151,0.972,1.612,1.483s0.827,1.101,1.1,1.766
		c0.272,0.665,0.477,1.433,0.614,2.302c0.136,0.87,0.205,1.902,0.205,3.097V330.321z M85.87,342.244h2.968V305.71H85.87v13.765
		c-1.296-1.706-2.695-2.865-4.196-3.479s-2.967-0.921-4.4-0.921c-3.684,0-6.575,1.254-8.672,3.761
		c-2.098,2.507-3.147,6.012-3.147,10.515c0,1.809,0.222,3.539,0.665,5.193c0.443,1.655,1.125,3.113,2.046,4.375
		c0.921,1.262,2.089,2.27,3.505,3.019c1.415,0.75,3.096,1.126,5.04,1.126c2.081,0,3.846-0.427,5.296-1.279
		c1.449-0.852,2.737-2.013,3.863-3.479V342.244z M39.41,327.252c0.306-3.309,1.225-5.765,2.755-7.368
		c1.53-1.604,3.571-2.405,6.122-2.405c1.462,0,2.721,0.239,3.775,0.717c1.054,0.479,1.904,1.151,2.55,2.021
		c0.646,0.87,1.122,1.902,1.428,3.096c0.306,1.195,0.459,2.508,0.459,3.94H39.41z M56.244,335.336
		c-0.205,0.777-0.485,1.479-0.842,2.104s-0.842,1.174-1.454,1.646c-0.613,0.474-1.378,0.836-2.296,1.089
		c-0.917,0.254-2.04,0.38-3.367,0.38c-1.463,0-2.755-0.279-3.877-0.84c-1.123-0.56-2.057-1.323-2.806-2.291
		s-1.309-2.105-1.683-3.412c-0.374-1.307-0.561-2.708-0.561-4.201H59.57v-1.894c0-1.808-0.205-3.496-0.614-5.065
		c-0.409-1.568-1.066-2.925-1.97-4.068c-0.904-1.143-2.072-2.046-3.505-2.712c-1.433-0.665-3.172-0.997-5.219-0.997
		c-1.74,0-3.334,0.307-4.784,0.921c-1.451,0.614-2.712,1.526-3.787,2.737c-1.074,1.212-1.911,2.704-2.507,4.478
		c-0.597,1.773-0.896,3.82-0.896,6.14c0,4.265,1.049,7.616,3.147,10.054c2.098,2.44,5.04,3.659,8.826,3.659
		c3.274,0,5.799-0.717,7.573-2.149c1.773-1.433,2.866-3.291,3.274-5.577H56.244z M9.785,323.517v-15.043h8.238
		c1.944,0,3.556,0.153,4.835,0.459s2.302,0.765,3.07,1.377s1.305,1.368,1.612,2.269c0.307,0.901,0.46,1.946,0.46,3.137
		c0,1.224-0.146,2.312-0.435,3.263c-0.29,0.952-0.793,1.769-1.509,2.448s-1.681,1.199-2.891,1.557
		c-1.212,0.355-2.738,0.534-4.58,0.534H9.785z M6.715,342.244h3.07v-15.965h7.931c0.682,0,1.33-0.025,1.944-0.077
		c0.614-0.05,1.21-0.109,1.791-0.179l7.317,16.221h3.633l-7.88-16.937c2.354-0.853,4.05-2.098,5.091-3.735s1.561-3.615,1.561-5.936
		c0-1.228-0.179-2.438-0.538-3.633c-0.357-1.193-1.023-2.251-1.996-3.173c-0.972-0.92-2.302-1.67-3.991-2.251
		c-1.688-0.579-3.846-0.87-6.473-0.87H6.715V342.244z"/>
</g>
</svg>
