<?xml version="1.0" encoding="utf-8"?>
<!-- Generator: Adobe Illustrator 15.1.0, SVG Export Plug-In . SVG Version: 6.00 Build 0)  -->
<!DOCTYPE svg PUBLIC "-//W3C//DTD SVG 1.1//EN" "http://www.w3.org/Graphics/SVG/1.1/DTD/svg11.dtd">
<svg version="1.1" id="Layer_1" xmlns="http://www.w3.org/2000/svg" xmlns:xlink="http://www.w3.org/1999/xlink" x="0px" y="0px"
	 width="566.93px" height="566.93px" viewBox="0 0 566.93 566.93" enable-background="new 0 0 566.93 566.93" xml:space="preserve">
<g>
	<path d="M528.693,353.989c-1.978-2.12-4.91-3.616-5.931-6.328c-1.759-4.161-0.935-9.752-4.964-12.666
		c-3.715-0.751-8.058,0.132-10.898-2.79c-1.542-1.419-2.167-3.462-1.59-5.536c2.344-5.001,3.812-10.848,2.567-16.877
		c0.229-1.955-2.304-4.076,0-5.714c7.042,1.903,16.293,2.61,22.588-1.412c5.843-3.865,9.919-9.843,9.521-17.056
		c-1.538-10.019-8.41-17.988-16.428-25.16c-1.019-0.894-1.849-1.827-1.771-3.148c0.185-0.754,0.265-1.684,1.149-1.992
		c4.205-0.264,8.289-0.841,11.912-2.564c6.392-3.507,8.063-10.535,7.142-17.458c-0.267-0.443-0.23-1.329-0.975-1.191
		c-1.772,1.858-3.813,2.914-5.977,3.766c-8.073,1.098-15.686,3.186-21.573,9.518c-2.001,2.484-2.218,7.002-0.629,9.707
		c4.961,9.521,16.566,15.278,19.224,25.769c1.503,4.522-0.487,8.56-3.946,11.478c-5.273,3.283-12.754,2.701-18.06,0
		c-12.58-6.375-23.126-17.722-37.032-20.823c-8.065-0.97-14.888-4.869-21.043-10.497c-5.231-4.023-12.002-4.605-18.026-6.731
		c-5.543-5.845-12.13-9.21-19.05-11.871c-3.89-1.732-8.776-1.199-12.087-4.385c-2.186-3.276-5.535-6.199-8.678-8.324
		c-4.833-2.755-11.834-5.01-17.06-1.998c-0.422,0.353-0.841,0.688-1.259,1.042c-10.794-18.145-26.694-32.913-45.689-42.325v-47.264
		l-72.028,15.092v23.44c-29.613,6.552-54.752,25.137-70.019,50.347c-3.634-0.133-7.279,0.552-10.25,2.271
		c-8.414,7.41-18.872,10.016-28.749,14.049c-5.495,2.701-8.946,8.863-14.442,11.515c-7.525-0.126-14.175,1.822-19.625,6.738
		c-4.51,5.274-9.868,9.295-16.251,10.496c-11.381,0.349-20.777,5.262-28.964,13.289c-8.021,5.14-15.86,11.91-26.356,9.699
		c-3.952-1.064-7.747-4.652-9.127-8.505c-2.482-8.243,2.575-15.021,8.731-20.24c5.843-5.229,14.129-10.539,12.312-19.398
		c-1.376-7.534-9.749-8.999-15.867-10.34c-6.333-0.112-11.205-3.659-16.247-6.711c-1.201,1.858-1.645,3.978-1.416,6.326
		c0.485,5.848,5.266,11.873,10.896,13.686c3.661,2.088,8.684-0.886,12.09,1.781c1.012,0.969,0.614,1.983,0.401,3.18
		c-6.869,6.956-17.284,13.818-19.007,23.572c-1.376,7.838,1.412,15.184,7.53,20.236c6.644,5.132,17.364,6.289,25.162,2.788
		c0.927-0.359,2.166-0.3,2.79,0.754l0.79,10.719c0.402,5.001,4.392,8.726,3.768,13.867c-2.481,2.787-5.888,4.118-8.942,5.98
		l-7.929,0.796c-2.213,1.73-3.061,4.391-3.77,6.914c-0.262,5.713-6.729,9.164-10.896,11.916c-1.466,2.871-4.117,6.87-7.928,6.731
		c-2.652,3.048-2.833,7.132-3.761,10.896c3.625,0.357,7.039,1.814,10.889,0.975c4.739-1.021,5.32-6.155,7.925-9.294
		c3.106-3.245,7.272,0.353,10.726-0.813c4.384-2.169,8.644-4.823,12.273-8.89c8.324-4.214,17.8,2.513,25.773-2.007
		c3.544-4.111,9.396-3.4,12.092-8.501c1.465-3.939,4.388-7.263,4.967-11.512c-0.849-0.843-1.639-1.816-2.786-1.99
		c-0.938,1.818-2.087,3.493-3.152,5.186c-5.049,8.316-13.988,10.809-22.81,11.687c-11.699-0.266-22.283,2.086-29.946,11.695h-0.797
		c-0.528-0.173-0.837-0.442-0.975-1.02c4.036-7.131,11.293-12.23,19.049-13.294c12.182-1.181,25.829-1.5,32.511-13.468
		c4.292-6.414,3.016-15.138,4.917-22.585c0.086-0.881,0.67-1.637,1.596-1.597c0.488,0.219,1.233,0.355,1.423,1.02
		c-0.852,6.118-1.163,12.758,0.969,18.433c3.809,5.042,11.249,2.298,16.255,1.369c9.525-2.036,17.985,3.02,27.731,0.979
		c1.059-0.491,1.989-1.108,1.59-2.575c-0.395-2.129-1.68-3.854-1.197-6.335c0.314-0.703,1.02-1.188,1.816-1.188
		c1.463,0.791,1.195,2.651,1.777,3.977c3.847,11.251,20.414,10.635,21.389,23.79c-1.463,4.825-6.644,6.652-10.89,7.703
		c-7.894,1.821-9.624-7.782-14.093-11.869c-3.894-2.392-9.08-0.607-13.244,0c-1.06,0.401-1.414,1.474-1.197,2.572l4.739,7.708
		c1.732,3.682,6.373-0.661,8.331,3.007c1.816,3.99,5.67,8.777,10.497,8.909c7.263-1.512,13.729-4.698,20.416-7.534
		c2.574-3.317,7.483-0.923,10.725-2.793c1.042-0.405,1.696-1.244,2.286-2.173c20.003,26.29,51.623,43.305,87.137,43.305
		c36.629,0,69.101-18.098,88.969-45.814c0.145,0.569,0.279,1.141,0.376,1.716c0.892,4.09,5.24,1.511,7.932,2.79
		c3.644,5.362,9.924,5.057,15.12,7.131c3.669,1.238,7.263,3.335,11.47,2.799c3.979-1.203,6.418-5.404,6.718-9.348
		c1.286-1.913,4.479-0.225,5.945-2.181c1.764-2.733,4.077-5.131,5.186-8.102c-1.689-2.386-5.186-1.198-7.744-1.81
		c-0.628,0.268-1.694,0.217-2.186,0.217l-0.17-0.217c-5.717-0.36-5.817,6.195-8.741,9.331c-1.093,1.304-2.83,1.119-4.368,1.387
		c-4.661-1.692-11.92-2.354-12.271-8.906c1.808-3.849,5.929-7.265,9.305-9.918c3.842-0.751,7.336-2.836,9.91-6.339
		c1.995-1.812,1.198-5.852,4.74-5.973c1.595,2.52,0,5.754-1.197,8.144c6.653,0.765,13.115-0.345,19.281-1.41
		c9.419-2.267,18.286,2.88,27.322-0.577c4.561-2.272,4.875-7.41,5.36-11.871l-0.226-0.225l0.226-0.176
		c-0.049-2.388-0.663-4.515-0.978-6.778c-0.142-1.021-0.576-2.429,0.18-3.365c0.712-0.404,1.197-0.31,1.77,0.231
		c3.771,8.411,2.039,19.123,6.737,27.142c3.27,6.821,9.962,11.691,17.448,12.092c0.312,0.05,0.626-0.441,0.796,0
		c11.957-2.388,22.422,2.39,29.549,11.47v0.622c-0.444,0.448-0.84,1.03-1.591,0.799c-1.334-1.725-3.105-2.435-4.559-3.992
		c-6.621-6.367-16.187-6.771-25.386-5.707c-9.479,0.266-18.26-7.71-21.579-16.079c-0.804-0.843-0.743-2.661-2.211-2.565
		c-0.441,0.312-0.579,0.785-0.752,1.191c0.575,6.2,1.425,12.226,5.706,16.825c4.081,1.996,7.261,6.069,11.924,6.566
		c6.515-1.553,14.169-0.853,20.015,1.76c4.606,1.778,8.337,5.722,12.486,8.516c2.352,1.146,5.5,0.572,7.536-0.975
		c5.271-1.417,6.121,4.864,9.696,7.346c3.018,2.309,7.445,1.328,11.307,1.549l0.613-0.352c-0.528-3.637-1.282-7.175-2.786-10.315
		C533.845,362.367,531.266,357.325,528.693,353.989 M379.418,250.924c1.202-0.046,2.528-0.131,2.975,1.2
		c0.658,2.345-2.076,3.849-3.54,5.357c-4.884,3.675-9.317,8.721-11.912,13.691h-0.415
		C366.142,262.755,372.338,255.479,379.418,250.924 M265.119,172.703l58.087-11.738l0.044,24.336
		c-12.812-5.269-26.816-8.186-41.51-8.186c-5.657,0-11.219,0.438-16.646,1.278L265.119,172.703z M191.122,259.244
		c0.709-0.081,1.546-0.395,2.166,0c1.955,1.417,2.792,3.637,3.774,5.586c1.054,3.716,1.457,8.412,0.389,12.271l-0.57,0.394
		c-0.571-0.93-0.571-2.121-0.8-3.185c-0.794-4.69-2.879-8.905-5.533-12.888C190.455,260.625,190.549,259.833,191.122,259.244
		 M387.349,326.842l-7.931,10.724l-1.146,2.38c-1.104,2.325-0.404,5.63-0.623,8.121c-1.944-1.032-2.071-3.464-2.775-5.366
		c-1.826-7.664,5.747-11.916,8.315-18.032c-1.683-0.709-3.2-1.805-5.131-1.985c-4.046,4.87-6.425,10.401-9.53,15.675
		c-0.227,1.754-0.05,3.412,0.284,5.032c-18.596,28.389-50.675,47.186-87.069,47.186c-34.595,0-65.288-16.983-84.22-43.038
		c1.318-2.387,2.685-4.744,2.317-7.802c-0.083-4.13-3.982-6.689-5.354-10.319c-0.792-1.865-1.549-3.911-2.572-5.539
		c-2.124-0.844-4.873-1.825-6.946-0.179c2.564,5.451,5.887,10.579,8.541,16.037c0.629,4.513-1.856,8.282-4.962,11.51
		c-0.441,0.45-1.054,0.052-1.413-0.403c0.971-3.272,2.26-6.634,2.003-10.095c-3.107-6.025-7.222-11.6-10.286-17.669
		c0.087-1.073,0.436-2.262,1.553-2.754c3.105-1.502,7.128-0.923,9.521-3.579c2.929-5.048,4.96-10.457,5.533-16.437
		c0.366-0.3,0.669-0.792,1.201-0.619c0.573,0.35,0.573,0.928,0.792,1.418c1.154,6.688-0.752,12.62-3.757,17.809
		c-0.45,0.622-0.043,1.28,0.383,1.812c2.229,0.972,4.576-0.177,6.746-0.403c4.07-2.917,9.91-1.632,14.477-3.357
		c0,0.479,0.8,0.573,0.583,1.15c-2.305,2.518-3.319,5.673-3.948,8.949c-2.745,3.098-6.95,5.623-6.95,9.923
		c0.707,1.767,2.258,0,3.369,0c0.754,0,1.196,0.839,1.015,1.548c-1.061,1.988-3.185,3.538-3.185,5.977
		c1.06,2.605,0,6.698,3.58,7.715c8.199,1.454,14.095-5.109,22.379-4.746c6.288,1.597,11.69-1.278,15.853-5.977
		c1.156-0.633,2.124,0.306,3.191,0.618c4.471,4.736,9.654,7.578,15.682,8.507c1.862,0.257,4.209,0.444,5.934-0.182
		c0.396-0.436,0.135-1.195-0.217-1.593c-4.434-1.737-8.781-4.209-12.101-8.331c-1.863-5.126-4.345-10.09-8.106-14.475
		c-0.304-0.273-0.304-0.983,0.172-1.16c4.252,1.017,7.846,5.316,9.747,9.083c3.451,5.31,8.642,9.697,15.243,9.128
		c0.794-0.223,1.994-0.141,1.767-1.378c-10.094-3.14-11.733-14.082-19.624-20.024c-3.847-9.569-7.304-19.26-9.078-29.717
		c-0.262-9.524-5.623-17.006-11.526-24.176c-9.291-14.09-23.863-22.11-36.034-32.52l-3.992-2.167
		c-1.564-0.93-3.343-1.674-5.216-2.193c14.398-22.698,37.348-39.458,64.265-45.736v34.885c-1.806-0.828-2.628-0.811-3.853-0.811
		c-12.222,0-22.954,11.387-22.954,18.958c0,5.145,4.07,8.131,9.504,8.131c5.978,0,13.182-3.122,18.477-8.667
		c4.201-4.464,5.685-8.933,5.685-16.933l0.12-36.939c5.426-0.866,10.983-1.338,16.659-1.338c14.745,0,28.787,3.091,41.509,8.65
		l0.018,13.862c-1.808-0.821-2.634-0.812-3.859-0.812c-12.218,0-22.948,11.376-22.948,18.962c0,5.153,4.072,8.134,9.499,8.134
		c5.991,0,13.185-3.117,18.478-8.667c4.204-4.477,5.696-8.941,5.696-16.939v-11.233c17.235,9.109,31.638,22.904,41.467,39.688
		c-13.367,10.278-27.708,18.192-40.332,30.09c-8.455,7.891-12.97,17.448-15.677,27.774c-6.319,18.075-7.79,39.857-26.931,50.935
		c-0.124,0.583,0.131,1.013,0.575,1.376c4.298,0.85,8.948-0.13,11.918-3.768c2.884-4.562,6.381-8.852,10.497-12.885h0.8
		c1.504,0.307,0.265,1.594,0.404,2.395c-5.765,5.491-5.862,13.679-13.52,18.033c-0.846,0.747-3.053,2.032-1.545,3.178
		c8.454,0.881,14.66-5.356,20.587-10.719l1.21-0.178c3.361,2.083,5.886,6.562,10.317,5.54c8.817-2.431,14.833,3.059,21.965,5.356
		c2.129,0.937,3.724-0.707,5.182-1.99c3.105-2.171,1.512-6.105,1.377-9.125l0.583-0.573c1.455-0.168,3.27,1.241,4.381-0.397
		c0.488-3.99-2.926-6.821-4.564-10.104c-0.887-6.509-8.376-10.283-9.517-16.658c0.352-0.27,0.614-0.747,1.001-0.795
		c3.03,1.775,5.505,4.745,8.516,6.516c4.564,2.305,10.057,2.207,15.467,2.388c0.839-0.181,0.839-1.011,0.784-1.77
		c-2.825-6.337-5.214-12.891-4.735-20.639c0.483-2.355-0.528-5.896,2.354-6.74c0.702,0.183,0.796,0.977,1.183,1.42
		c0.367,6.913,0.505,13.995,3.597,19.805c1.679,4.163,6.121,6.564,9.478,9.117C387.713,323.216,388.109,325.289,387.349,326.842
		 M237.093,302.664c-1.01-0.49-2.25-0.444-3.142,0.398l-3.186,3.753c-1.061-0.476-0.537-2.206-0.394-3.136
		c1.146-2.881,2.745-5.624,3.759-8.543c0.538-0.894,1.811-0.63,2.569-0.409c3.093,1.996,3.679,5.659,6.728,7.935
		c2.394,3.225,3.905,8.055,1.819,11.919c-0.613,0.038-1.369,0.83-1.819,0C243.877,309.573,240.954,305.534,237.093,302.664
		 M230.372,334.774c1.676-1.503,3.399-3.459,5.924-2.361l0.404,1.561c0.268,1.506-0.354,2.657-0.971,3.764
		c-2.084,0.579-4.252,1.473-6.561,0.8C228.591,337.113,229.968,336.019,230.372,334.774 M338.981,305.626
		c-0.437-0.528-0.625-1.337-1.37-1.55c-2.88-0.709-5.011,1.686-7.13,3.368c-3.504,2.129-4.526,5.667-5.36,9.123
		c-0.229,0.617-0.89,0.269-1.371,0.401c-1.782-1.765,0-3.983,0-5.986c1.771-6.025,8.591-9.392,11.875-14.833
		c3.49-0.135,3.925,3.859,5.579,5.93c0.438,1.687,2.601,3.808,0.393,5.365C340.408,307.67,339.335,306.654,338.981,305.626
		 M339.2,338.537c-1.451,0.45-2.963,0-4.371-0.18c-1.656-0.885-1.734-2.791-2.183-4.384c0.354-0.522,0.085-1.506,0.798-1.771
		c1.993,0.134,3.902,0.881,5.142,2.387C339.115,335.79,340.179,337.212,339.2,338.537 M171.274,347.884
		c0.266-0.975-0.485-1.508-0.752-2.21c-0.97-1.959-1.42-4.083-2.611-5.938c-2.524-0.094-5.401,0.089-7.93,0.613l-0.186-0.22
		c-0.699,0.36-1.591,0.135-2.381,0.22c-0.405,0.269-0.577,0.665-0.577,1.157c3.449,2.034,4.296,5.849,6.158,8.943
		C166.007,351.999,168.89,349.612,171.274,347.884 M403.841,340.929c-1.13-0.056-2.356,0.085-3.209,0l-0.163,0.175
		c-1.416-0.444-3.188,0.085-4.562-0.356c-1.515,1.953-2.526,4.348-1.998,6.913c0.894,1.592,2.788,1.636,4.161,2.394
		c1.506,0.085,3.682,0.786,4.75-0.62c1.066-2.526,1.897-5.142,2.38-7.931C404.844,341.062,404.399,340.835,403.841,340.929
		 M24.216,357.761c2.177,0.938,3.903-0.531,5.366-1.951c1.241-2.035,3.191-3.768,3.54-6.155c-0.621-1.501-2.484-2.921-3.947-1.993
		c-2.076,3.366-8.808,3.314-6.948,8.543C22.889,356.745,23.381,357.676,24.216,357.761 M536.051,347.482l-1.411-0.228
		c-0.935,0.854-3.065,1.419-2.579,3.194c2.046,2.748,3.466,7.265,7.365,7.719c1.261-0.588,2.873-0.896,3.526-2.358
		c0.194-1.021,0.675-1.905,0-2.795L536.051,347.482z M16.696,358.958c-2.802,1.679-2.707,4.91-2.576,7.931
		c-0.043,1.901-2.26,2.924-1.991,4.953c2.081,0.718,4.032,1.861,6.323,1.996c1.294-3.85,2.139-7.925,3.198-11.913l-3.586-3.533
		C17.528,358.392,17.136,358.778,16.696,358.958 M550.717,361.742c-0.72-1.141-1.552-2.336-2.791-2.964
		c-1.99-1.018-3.229,1.416-4.34,2.571c-0.312,3.016,1.183,5.802,1.772,8.715c0.387,1.377-0.09,3.335,1.194,4.163l5.923-1.77
		l0.227-1.584C550.314,368.519,551.651,364.677,550.717,361.742"/>
</g>
</svg>
